PathFileType	4	(X/Y/Z)	C:/Users/opensim2020/Desktop/walking_exp_matlab/subject02_walking12_straight_04.trc	
DataRate	CameraRate	NumFrames	NumMarkers	Units	OrigDataRate	OrigDataStartFrame	OrigNumFrames	
100.00	100.00	6	42	mm	100.00	2086	125	
Frame#	Time	LFHD			RFHD			LBHD			RBHD			C7			T10			CLAV			STRN			RBAK			LSHO			LUPA			LELB			LFRM			LWRA			LWRB			LFIN			RSHO			RUPA			RELB			RFRM			RWRA			RWRB			RFIN			LASI			RASI			LPSI			RPSI			LTHI			LKNE			LTIB			LANK			LHEE			LTOE			RTHI			RKNE			RTIB			RANK			RHEE			RTOE			*39			*40			*41			
		X1	Y1	Z1	X2	Y2	Z2	X3	Y3	Z3	X4	Y4	Z4	X5	Y5	Z5	X6	Y6	Z6	X7	Y7	Z7	X8	Y8	Z8	X9	Y9	Z9	X10	Y10	Z10	X11	Y11	Z11	X12	Y12	Z12	X13	Y13	Z13	X14	Y14	Z14	X15	Y15	Z15	X16	Y16	Z16	X17	Y17	Z17	X18	Y18	Z18	X19	Y19	Z19	X20	Y20	Z20	X21	Y21	Z21	X22	Y22	Z22	X23	Y23	Z23	X24	Y24	Z24	X25	Y25	Z25	X26	Y26	Z26	X27	Y27	Z27	X28	Y28	Z28	X29	Y29	Z29	X30	Y30	Z30	X31	Y31	Z31	X32	Y32	Z32	X33	Y33	Z33	X34	Y34	Z34	X35	Y35	Z35	X36	Y36	Z36	X37	Y37	Z37	X38	Y38	Z38	X39	Y39	Z39	X40	Y40	Z40	X41	Y41	Z41	X42	Y42	Z42	

94	0.930	1503.43420	-527.22943	1727.77075	1363.56848	-497.87405	1703.94019	1541.67212	-395.60629	1665.03015	1405.26892	-354.56509	1640.91809	1473.63757	-317.53253	1519.72058	1480.90784	-272.14368	1238.78198	1484.82739	-455.56223	1451.32654	1478.79224	-513.42523	1282.38513	1417.56433	-260.75449	1338.26978	1653.30969	-385.85394	1498.25012	1743.76575	-353.06445	1300.56348	1759.05945	-336.32846	1162.22363	1778.70300	-329.61105	1032.40417	1750.09753	-364.25046	898.16925	1788.16260	-323.21790	909.44055	1794.44971	-335.38568	844.44110	1288.70947	-387.06116	1478.23523	1208.59509	-374.73267	1285.32886	1184.50659	-415.80688	1142.28223	1175.03406	-490.66656	1044.79138	1204.21265	-589.25079	956.18573	1173.22961	-549.97266	929.07458	1175.86707	-612.15906	890.87256	1611.80493	-522.99768	994.32019	1355.83789	-499.36609	966.21667	1552.80762	-305.72336	1028.04407	1440.21094	-291.47934	1019.00476	1679.92761	-495.85898	681.38336	1651.30225	-489.90088	477.84888	1661.76245	-431.79175	291.78342	1629.78540	-421.98795	70.15267	1582.49854	-381.36377	42.62377	1632.91602	-578.11749	30.73969	1295.28687	-447.60199	656.50714	1305.81165	-472.66122	463.05637	1325.49255	-326.86111	356.38892	1378.25867	-192.39656	226.01959	1447.82385	-147.40543	199.59062	1327.87012	-247.56805	86.24229	1431.96814	-414.40161	1798.49390	-3356.97656	2845.87915	1034.37000			 
95	0.940	1502.42664	-540.96027	1728.87732	1363.56934	-509.66562	1704.40601	1541.10913	-409.48752	1666.69458	1405.22168	-367.56668	1642.50696	1474.17542	-330.27963	1521.64136	1482.55505	-284.11597	1240.91785	1484.59631	-468.23889	1452.78552	1478.97180	-525.40845	1283.50867	1418.69568	-273.27182	1339.71326	1653.35925	-400.04028	1500.62244	1745.62073	-371.76999	1302.97144	1762.58582	-357.92059	1164.39380	1782.56909	-355.58954	1034.21057	1754.83594	-394.25241	901.43628	1792.73999	-352.78094	911.35577	1800.01453	-367.51337	847.28668	1288.94275	-399.03430	1479.37756	1209.05994	-385.88293	1286.40051	1185.69983	-424.75793	1142.85486	1176.50415	-496.53418	1043.67017	1205.54272	-592.89392	951.90588	1173.75867	-553.08612	926.24469	1177.29810	-614.04578	885.67737	1612.39087	-534.12384	994.92700	1356.25439	-510.63739	969.08923	1553.59729	-317.27423	1030.09778	1440.79553	-302.96411	1021.12073	1679.91870	-501.95731	681.40057	1651.33887	-492.05978	477.86243	1661.48535	-431.78986	292.40997	1629.58569	-421.92535	70.34577	1582.69580	-381.24927	42.72951	1632.93127	-578.09363	30.70227	1294.93481	-465.61792	659.57800	1307.17151	-495.15381	466.16492	1328.01318	-353.07254	354.45117	1381.86267	-223.98198	219.12662	1451.47937	-180.16106	190.10191	1330.32458	-285.73270	83.04999	1431.22681	-428.14212	1799.82886	-3360.18726	2845.08350	1034.33838			 
96	0.950	1501.33582	-554.61664	1729.79675	1362.68481	-522.66650	1705.09033	1541.05957	-422.90720	1668.32068	1405.01001	-380.57413	1643.75745	1474.61926	-343.46158	1523.29883	1483.98718	-296.18030	1242.75842	1484.25977	-480.88882	1454.00928	1479.12805	-537.55219	1284.47778	1420.08374	-285.37234	1341.28296	1653.27563	-414.20166	1502.77295	1747.11694	-390.65659	1305.06372	1765.94678	-379.67151	1166.51831	1786.50696	-381.57236	1036.27417	1759.44263	-424.63019	904.99042	1797.18799	-382.68967	913.47430	1805.07959	-400.04819	850.21899	1289.14050	-410.85849	1480.28772	1209.77405	-396.18015	1287.20325	1186.72632	-433.64780	1143.18530	1177.23096	-502.89499	1042.20068	1206.55212	-596.42834	947.65283	1174.26575	-556.24005	923.50226	1178.32056	-615.66718	880.58820	1612.80615	-543.96478	994.86517	1357.34631	-522.41876	971.55835	1553.96436	-328.71100	1031.78528	1440.89319	-314.44675	1022.85754	1679.69299	-507.50452	680.88568	1651.55505	-493.47769	477.92896	1661.04700	-431.72351	292.87778	1629.40149	-421.91537	70.52624	1582.16333	-381.34741	43.08495	1632.94543	-578.08563	30.69591	1294.32556	-483.49033	662.46161	1308.35718	-517.66846	468.91995	1330.43958	-379.46948	351.64078	1385.09387	-256.51813	211.14253	1454.82764	-213.99614	179.71365	1333.14893	-324.99005	79.00924	1430.43335	-441.71744	1800.94629	-3357.07788	2845.95337	1034.29541			 
97	0.960	1500.14490	-568.24683	1730.45703	1361.69226	-535.53516	1705.40686	1540.62915	-436.50629	1669.53564	1404.90845	-393.44205	1644.76709	1475.46558	-355.79099	1524.59998	1485.19910	-308.21152	1244.29968	1483.86426	-493.57184	1454.93896	1479.10754	-549.62622	1285.17798	1421.50806	-296.96823	1342.73914	1653.00415	-428.27878	1504.59875	1748.72083	-409.38019	1307.30518	1769.28821	-401.60782	1168.65479	1790.36853	-407.77570	1038.59595	1763.97229	-455.07047	908.76410	1801.61279	-413.03754	915.91980	1809.48633	-432.84860	853.14301	1289.19287	-422.88254	1480.86743	1209.98608	-407.20584	1287.85913	1187.63135	-442.49094	1143.50256	1178.18433	-509.03815	1040.93127	1207.43408	-599.52167	943.31604	1174.57556	-558.90601	920.61304	1179.11072	-616.93237	875.75037	1613.81885	-554.67426	995.32373	1358.94531	-534.57098	973.59583	1553.89783	-340.01614	1033.06287	1440.52014	-325.97824	1024.28894	1679.73010	-513.55133	680.63733	1651.81958	-495.12741	478.06799	1660.66663	-431.74005	293.29300	1629.22815	-421.95331	70.65644	1581.99976	-381.40836	43.19737	1632.96228	-578.10266	30.63625	1293.49170	-501.21399	665.16272	1309.38147	-539.31927	471.42676	1332.32520	-406.21777	348.03854	1388.07312	-289.87344	202.34901	1457.72717	-248.94595	168.67004	1335.96277	-365.22672	74.59531	1429.64783	-455.24326	1801.94470	-3360.39526	2845.22461	1034.30103			 
98	0.970	1498.90894	-581.94995	1730.92920	1360.61682	-548.34033	1705.61194	1540.13928	-450.09180	1670.38147	1404.71265	-406.27127	1645.46802	1475.11621	-369.24545	1525.60010	1486.23157	-320.29102	1245.50171	1483.44666	-506.24905	1455.60901	1479.07153	-561.69263	1285.62695	1422.41333	-309.03220	1343.91626	1652.61609	-442.31091	1506.12354	1750.23438	-428.04651	1309.43640	1772.53113	-423.57532	1170.76660	1794.51331	-434.00357	1041.05444	1768.68225	-486.65765	913.09131	1805.86768	-443.63474	918.53705	1814.13660	-465.32822	856.58228	1288.91895	-435.14474	1481.22668	1210.25806	-417.42200	1288.21948	1188.54907	-450.57864	1143.40991	1178.72339	-515.00690	1039.24536	1208.13757	-602.55121	939.05408	1174.84534	-561.35938	917.72607	1179.51453	-618.00739	870.99835	1615.12341	-565.15192	995.78552	1361.01733	-546.75275	975.01489	1553.18616	-351.43143	1033.81335	1439.86707	-337.59448	1025.34387	1679.46436	-519.35144	680.21857	1652.02808	-496.82919	478.13339	1660.39343	-432.19043	293.59027	1629.15710	-421.91199	70.70385	1581.92480	-381.29257	43.50903	1632.97668	-578.06268	30.56533	1292.68372	-518.65027	667.74561	1310.53186	-560.80371	473.78378	1333.92627	-433.22424	343.81091	1390.64685	-324.18130	192.96008	1460.71350	-284.61261	157.24841	1338.77026	-406.51102	69.90320	1428.65967	-468.68735	1802.40479	-3357.29565	2845.88989	1034.21167			 
99	0.980	1497.49902	-595.34540	1730.91516	1359.44446	-561.08575	1705.48169	1539.56543	-463.68256	1670.95300	1404.35559	-419.06409	1645.87219	1475.14490	-381.82373	1526.32788	1486.91943	-332.31354	1246.39343	1482.94055	-518.84259	1455.95679	1478.92480	-573.78156	1285.89526	1422.94922	-321.25354	1344.67395	1652.18115	-456.15546	1507.34351	1751.57617	-446.63742	1311.48291	1775.60596	-445.60968	1172.81482	1798.18103	-460.47174	1043.51331	1772.12390	-516.46234	916.72711	1810.01563	-474.44376	921.49664	1817.91016	-498.18503	859.83258	1288.96130	-446.81705	1481.31592	1210.59534	-427.48648	1287.98718	1189.50073	-458.36172	1143.07349	1179.65088	-520.01526	1037.51294	1208.57800	-605.32269	934.73340	1174.97351	-563.65900	914.77185	1179.64014	-618.95050	866.40491	1616.53186	-575.32855	996.08411	1362.76868	-559.39996	976.29407	1552.33643	-362.44608	1034.27747	1438.69287	-349.29041	1026.27844	1679.10522	-525.33160	680.21759	1652.19922	-498.87704	478.17896	1660.36243	-432.99484	293.80804	1629.11487	-421.95297	70.89513	1582.07397	-381.27744	43.39024	1632.96985	-578.05908	30.56222	1291.81372	-535.69019	669.94067	1311.39417	-581.57288	475.65198	1335.12073	-460.46771	339.02335	1392.87231	-359.28024	183.03926	1462.75500	-321.68167	145.17758	1341.27319	-448.88242	65.52989	1427.74927	-482.11328	1802.72156	-3357.22925	2845.97339	1034.21570			 
